<?xml version='1.0' encoding='UTF-8'?>
<!DOCTYPE svg PUBLIC "-//W3C//DTD SVG 1.0//EN" "http://www.w3.org/TR/2001/REC-SVG-20010904/DTD/svg10.dtd">
<svg viewBox="0 0 1024 728" xmlns="http://www.w3.org/2000/svg" xmlns:inkspace="http://www.inkscape.org/namespaces/inkscape" xmlns:xlink="http://www.w3.org/1999/xlink">
  <defs id="defs_block">
    <filter height="1.504" id="filter_blur" inkspace:collect="always" width="1.1575" x="-0.07875" y="-0.252">
      <feGaussianBlur id="feGaussianBlur3780" inkspace:collect="always" stdDeviation="4.2" />
    </filter>
  </defs>
  <title>blockdiag</title>
  <desc>seqdiag {
  User -&gt; kubectl [label = "Run"];
  kubectl -&gt; kubelogin [label = "Run as credential plugin"];
  kubelogin -&gt; Provider [label = "Authentication request"];
  === User authentication on the browser ===
  kubelogin &lt;-- Provider [label = "Token response"];
  kubectl &lt;-- kubelogin [label = "Credential"];
  kubectl -&gt; kube-apiserver [label = "Request with the token"];
  kubectl &lt;-- kube-apiserver;
  User &lt;-- kubectl;
}
</desc>
  <rect fill="rgb(0,0,0)" height="564" style="filter:url(#filter_blur);opacity:0.7;fill-opacity:1" width="8" x="127" y="142" />
  <rect fill="rgb(0,0,0)" height="518" style="filter:url(#filter_blur);opacity:0.7;fill-opacity:1" width="8" x="319" y="142" />
  <rect fill="rgb(0,0,0)" height="282" style="filter:url(#filter_blur);opacity:0.7;fill-opacity:1" width="8" x="511" y="210" />
  <rect fill="rgb(0,0,0)" height="148" style="filter:url(#filter_blur);opacity:0.7;fill-opacity:1" width="8" x="703" y="278" />
  <rect fill="rgb(0,0,0)" height="50" style="filter:url(#filter_blur);opacity:0.7;fill-opacity:1" width="8" x="895" y="560" />
  <rect fill="rgb(0,0,0)" height="40" stroke="rgb(0,0,0)" style="filter:url(#filter_blur);opacity:0.7;fill-opacity:1" width="128" x="67" y="46" />
  <rect fill="rgb(0,0,0)" height="40" stroke="rgb(0,0,0)" style="filter:url(#filter_blur);opacity:0.7;fill-opacity:1" width="128" x="259" y="46" />
  <rect fill="rgb(0,0,0)" height="40" stroke="rgb(0,0,0)" style="filter:url(#filter_blur);opacity:0.7;fill-opacity:1" width="128" x="451" y="46" />
  <rect fill="rgb(0,0,0)" height="40" stroke="rgb(0,0,0)" style="filter:url(#filter_blur);opacity:0.7;fill-opacity:1" width="128" x="643" y="46" />
  <rect fill="rgb(0,0,0)" height="40" stroke="rgb(0,0,0)" style="filter:url(#filter_blur);opacity:0.7;fill-opacity:1" width="128" x="835" y="46" />
  <path d="M 128 80 L 128 716" fill="none" stroke="rgb(0,0,0)" stroke-dasharray="8 4" />
  <rect fill="moccasin" height="564" stroke="rgb(0,0,0)" width="8" x="124" y="136" />
  <path d="M 320 80 L 320 716" fill="none" stroke="rgb(0,0,0)" stroke-dasharray="8 4" />
  <rect fill="moccasin" height="518" stroke="rgb(0,0,0)" width="8" x="316" y="136" />
  <path d="M 512 80 L 512 716" fill="none" stroke="rgb(0,0,0)" stroke-dasharray="8 4" />
  <rect fill="moccasin" height="282" stroke="rgb(0,0,0)" width="8" x="508" y="204" />
  <path d="M 704 80 L 704 716" fill="none" stroke="rgb(0,0,0)" stroke-dasharray="8 4" />
  <rect fill="moccasin" height="148" stroke="rgb(0,0,0)" width="8" x="700" y="272" />
  <path d="M 896 80 L 896 716" fill="none" stroke="rgb(0,0,0)" stroke-dasharray="8 4" />
  <rect fill="moccasin" height="50" stroke="rgb(0,0,0)" width="8" x="892" y="554" />
  <rect fill="rgb(255,255,255)" height="40" stroke="rgb(0,0,0)" width="128" x="64" y="40" />
  <text fill="rgb(0,0,0)" font-family="sans-serif" font-size="11" font-style="normal" font-weight="normal" text-anchor="middle" textLength="26" x="128.0" y="66">User</text>
  <rect fill="rgb(255,255,255)" height="40" stroke="rgb(0,0,0)" width="128" x="256" y="40" />
  <text fill="rgb(0,0,0)" font-family="sans-serif" font-size="11" font-style="normal" font-weight="normal" text-anchor="middle" textLength="41" x="320.5" y="66">kubectl</text>
  <rect fill="rgb(255,255,255)" height="40" stroke="rgb(0,0,0)" width="128" x="448" y="40" />
  <text fill="rgb(0,0,0)" font-family="sans-serif" font-size="11" font-style="normal" font-weight="normal" text-anchor="middle" textLength="55" x="512.5" y="67">kubelogin</text>
  <rect fill="rgb(255,255,255)" height="40" stroke="rgb(0,0,0)" width="128" x="640" y="40" />
  <text fill="rgb(0,0,0)" font-family="sans-serif" font-size="11" font-style="normal" font-weight="normal" text-anchor="middle" textLength="48" x="704.0" y="66">Provider</text>
  <rect fill="rgb(255,255,255)" height="40" stroke="rgb(0,0,0)" width="128" x="832" y="40" />
  <text fill="rgb(0,0,0)" font-family="sans-serif" font-size="11" font-style="normal" font-weight="normal" text-anchor="middle" textLength="87" x="896.5" y="67">kube-apiserver</text>
  <path d="M 136 136 L 312 136" fill="none" stroke="rgb(0,0,0)" />
  <polygon fill="rgb(0,0,0)" points="304,132 312,136 304,140" stroke="rgb(0,0,0)" />
  <path d="M 328 204 L 504 204" fill="none" stroke="rgb(0,0,0)" />
  <polygon fill="rgb(0,0,0)" points="496,200 504,204 496,208" stroke="rgb(0,0,0)" />
  <path d="M 520 272 L 696 272" fill="none" stroke="rgb(0,0,0)" />
  <polygon fill="rgb(0,0,0)" points="688,268 696,272 688,276" stroke="rgb(0,0,0)" />
  <path d="M 520 420 L 696 420" fill="none" stroke="rgb(0,0,0)" stroke-dasharray="4" />
  <polygon fill="rgb(0,0,0)" points="528,416 520,420 528,424" stroke="rgb(0,0,0)" />
  <path d="M 328 486 L 504 486" fill="none" stroke="rgb(0,0,0)" stroke-dasharray="4" />
  <polygon fill="rgb(0,0,0)" points="336,482 328,486 336,490" stroke="rgb(0,0,0)" />
  <path d="M 328 554 L 888 554" fill="none" stroke="rgb(0,0,0)" />
  <polygon fill="rgb(0,0,0)" points="880,550 888,554 880,558" stroke="rgb(0,0,0)" />
  <path d="M 328 604 L 888 604" fill="none" stroke="rgb(0,0,0)" stroke-dasharray="4" />
  <polygon fill="rgb(0,0,0)" points="336,600 328,604 336,608" stroke="rgb(0,0,0)" />
  <path d="M 136 654 L 312 654" fill="none" stroke="rgb(0,0,0)" stroke-dasharray="4" />
  <polygon fill="rgb(0,0,0)" points="144,650 136,654 144,658" stroke="rgb(0,0,0)" />
  <text fill="rgb(0,0,0)" font-family="sans-serif" font-size="11" font-style="normal" font-weight="normal" text-anchor="middle" textLength="22" x="151.0" y="134">Run</text>
  <text fill="rgb(0,0,0)" font-family="sans-serif" font-size="11" font-style="normal" font-weight="normal" text-anchor="middle" textLength="137" x="400.5" y="202">Run as credential plugin</text>
  <text fill="rgb(0,0,0)" font-family="sans-serif" font-size="11" font-style="normal" font-weight="normal" text-anchor="middle" textLength="129" x="588.5" y="270">Authentication request</text>
  <text fill="rgb(0,0,0)" font-family="sans-serif" font-size="11" font-style="normal" font-weight="normal" text-anchor="middle" textLength="91" x="650.5" y="418">Token response</text>
  <text fill="rgb(0,0,0)" font-family="sans-serif" font-size="11" font-style="normal" font-weight="normal" text-anchor="middle" textLength="58" x="475.0" y="484">Credential</text>
  <text fill="rgb(0,0,0)" font-family="sans-serif" font-size="11" font-style="normal" font-weight="normal" text-anchor="middle" textLength="131" x="397.5" y="552">Request with the token</text>
  <path d="M 40 340 L 402 340" fill="none" stroke="rgb(0,0,0)" />
  <path d="M 40 344 L 402 344" fill="none" stroke="rgb(0,0,0)" />
  <path d="M 622 340 L 984 340" fill="none" stroke="rgb(0,0,0)" />
  <path d="M 622 344 L 984 344" fill="none" stroke="rgb(0,0,0)" />
  <rect fill="rgb(208,208,208)" height="20" stroke="rgb(0,0,0)" width="220" x="402" y="332" />
  <text fill="rgb(0,0,0)" font-family="sans-serif" font-size="11" font-style="normal" font-weight="normal" text-anchor="middle" textLength="200" x="512.0" y="348">User authentication on the browser</text>
</svg>
